<svg width="54" height="54" viewBox="0 0 54 54" fill="none" xmlns="http://www.w3.org/2000/svg">
<path d="M48.1445 6.42036C46.9228 5.01898 45.4722 3.9073 43.8757 3.14884C42.2791 2.39038 40.5679 2 38.8397 2C37.1115 2 35.4003 2.39038 33.8037 3.14884C32.2072 3.9073 30.7566 5.01898 29.5349 6.42036L26.9994 9.32737L24.4639 6.42036C21.9961 3.59099 18.649 2.00147 15.159 2.00147C11.669 2.00147 8.32198 3.59099 5.85419 6.42036C3.38639 9.24973 2 13.0872 2 17.0885C2 21.0899 3.38639 24.9273 5.85419 27.7567L26.9994 52L48.1445 27.7567C49.3668 26.356 50.3364 24.6928 50.998 22.8624C51.6595 21.0319 52 19.0699 52 17.0885C52 15.1071 51.6595 13.1452 50.998 11.3147C50.3364 9.4842 49.3668 7.82109 48.1445 6.42036Z" stroke="#1E1E1E" stroke-width="4" stroke-linecap="round" stroke-linejoin="round"/>
</svg>
